# xmcd CD database file
#
# Track frame offsets:
#	150
#	15096
#	28421
#	42916
#	56930
#	69678
#	82852
#	99562
#	115436
#	127187
#	144956
#	159916
#	179171
#	199773
#	215878
#	233473
#	253792
#
# Disc length: 3592 seconds
#
# Revision: 1
# Processed by: cddbd v1.5.2PL0 Copyright (c) Steve Scherf et al.
# Submitted via: jetAudio 5
#
DISCID=f60e0611
DTITLE=T.I.V.C英國兒童合唱團 - 讓夢想豈非 - 希望童話 (Flying Dreams - T
DTITLE=I.V.C.)
DYEAR=1900
DGENRE=
TTITLE0=Tie a Yellow Ribbon Round the Old Oak Tree 老橡樹上的黃絲帶
TTITLE1=Happy Together 歡聚在一起
TTITLE2=Proud of You 你是我的驕傲
TTITLE3=The Sound of Silence 沉默之聲
TTITLE4=There's a Kind of Hush 愛的呼聲
TTITLE5=Raindrops Keep Falling on My Head 雨滴不斷落在我頭上
TTITLE6=Stand by Me 站在我這邊
TTITLE7=The Rose 真愛玫瑰
TTITLE8=Yesterday 昨日
TTITLE9=Vincent 梵谷之歌
TTITLE10=Quando Quando Quando 何時何時何時
TTITLE11=Toy Soldiers 玩具兵
TTITLE12=I Believe I Can Fly 相信自我
TTITLE13=You Light Up My Life 你照亮我生命
TTITLE14=Yesterday Once More 昨日重現
TTITLE15=I Have a Dream 心中有夢
TTITLE16=Family Affair 家族大事
EXTD=音樂類型：CD西洋合輯 發行日期：2008年05月27日
EXTT0=原唱: Tony Orlando東尼奧蘭多
EXTT1=原唱: The Turtles烏龜合唱團
EXTT2=原唱: Fiona Fung費歐娜方
EXTT3=原唱: Simon and Garfunkel賽門與葛芬柯
EXTT4=原唱: Herman's Hermits赫曼賀密斯合唱團
EXTT5=原唱:/ B.J. Thomas BJ湯瑪斯
EXTT6=原唱: Ben E King班伊金
EXTT7=Bette Midler貝蒂蜜勒
EXTT8=原唱: The Beatles披頭四合唱團
EXTT9=原唱: Don McLean唐麥克林
EXTT10=Engelbert Humperdinck英格柏漢普汀克
EXTT11=原唱: Martika瑪蒂卡
EXTT12=原唱: R. Kelly 勞凱利
EXTT13=原唱: Debby Boone 黛比布
EXTT14=原唱: The Carpenters卡本特合唱團)
EXTT15=原唱: Abba阿巴合唱團
EXTT16=原唱: Mary J Blige瑪麗布萊姬 (Bonus Track)
PLAYORDER=
